<?xml version="1.0" encoding="utf-8"?>
<!-- Generator: Adobe Illustrator 24.3.2, SVG Export Plug-In . SVG Version: 6.00 Build 0)  -->
<svg version="1.1" id="Calque_1" xmlns="http://www.w3.org/2000/svg" xmlns:xlink="http://www.w3.org/1999/xlink" x="0px" y="0px"
	 viewBox="0 0 348.3 296.1" style="enable-background:new 0 0 348.3 296.1;" xml:space="preserve">
<style type="text/css">
	.st0{fill:#00AFDB;}
	.st1{fill:#007FA2;}
	.st2{fill:#1D1D1B;}
</style>
<g>
	<path class="st0" d="M174.1,84.9c-6.6,0-11.9,5.3-11.9,11.9s5.3,11.9,11.9,11.9s11.9-5.3,11.9-11.9C186,90.2,180.7,84.9,174.1,84.9
		"/>
	<path class="st0" d="M151.7,96.8c0-3-2.4-5.4-5.4-5.4s-5.4,2.4-5.4,5.4s2.4,5.4,5.4,5.4S151.7,99.8,151.7,96.8"/>
	<path class="st0" d="M201.9,91.5c-3,0-5.4,2.4-5.4,5.4s2.4,5.4,5.4,5.4s5.4-2.4,5.4-5.4S204.9,91.5,201.9,91.5"/>
	<path class="st0" d="M154.4,111.2c-1.4,0-2.8,0.6-3.8,1.6s-1.6,2.4-1.6,3.8s0.6,2.8,1.6,3.8s2.4,1.6,3.8,1.6c1.4,0,2.8-0.6,3.8-1.6
		s1.6-2.4,1.6-3.8s-0.6-2.8-1.6-3.8S155.9,111.2,154.4,111.2"/>
	<path class="st0" d="M193.8,82.5c1.4,0,2.8-0.6,3.8-1.6s1.6-2.4,1.6-3.8c0-1.4-0.6-2.8-1.6-3.8s-2.4-1.6-3.8-1.6
		c-1.4,0-2.8,0.6-3.8,1.6s-1.6,2.4-1.6,3.8c0,1.4,0.6,2.8,1.6,3.8C191,82,192.3,82.5,193.8,82.5"/>
	<path class="st0" d="M154.4,82.5c1.4,0,2.8-0.6,3.8-1.6c2.1-2.1,2.1-5.5,0-7.6c-1-1-2.4-1.6-3.8-1.6c-1.4,0-2.8,0.6-3.8,1.6
		s-1.6,2.4-1.6,3.8c0,1.4,0.6,2.8,1.6,3.8C151.7,82,153,82.5,154.4,82.5"/>
	<path class="st0" d="M193.8,111.2c-1.4,0-2.8,0.6-3.8,1.6s-1.6,2.4-1.6,3.8s0.6,2.8,1.6,3.8s2.4,1.6,3.8,1.6c1.4,0,2.8-0.6,3.8-1.6
		s1.6-2.4,1.6-3.8s-0.6-2.8-1.6-3.8S195.2,111.2,193.8,111.2"/>
	<path class="st0" d="M174.1,63.6c-3,0-5.4,2.4-5.4,5.4s2.4,5.4,5.4,5.4s5.4-2.4,5.4-5.4S177.1,63.6,174.1,63.6"/>
	<path class="st0" d="M174.1,119.3c-3,0-5.4,2.4-5.4,5.4s2.4,5.4,5.4,5.4s5.4-2.4,5.4-5.4S177.1,119.3,174.1,119.3"/>
	<path class="st1" d="M219.4,93.8c-1.7,0-3,1.4-3,3c0,1.7,1.4,3,3,3c1.7,0,3-1.4,3-3C222.5,95.2,221.1,93.8,219.4,93.8"/>
	<path class="st1" d="M174.1,139.1c-1.7,0-3,1.4-3,3c0,1.7,1.4,3,3,3c1.7,0,3-1.4,3-3C177.1,140.4,175.7,139.1,174.1,139.1"/>
	<path class="st1" d="M174.1,54.5c1.7,0,3-1.4,3-3c0-1.7-1.4-3-3-3c-1.7,0-3,1.4-3,3C171.1,53.1,172.4,54.5,174.1,54.5"/>
	<path class="st1" d="M203.9,126.5c-0.6,0.6-0.9,1.3-0.9,2.1c0,0.8,0.3,1.6,0.9,2.1c0.6,0.6,1.3,0.9,2.1,0.9s1.6-0.3,2.1-0.9
		c0.6-0.6,0.9-1.3,0.9-2.1s-0.3-1.6-0.9-2.1c-0.6-0.6-1.3-0.9-2.1-0.9C205.2,125.8,204.4,126,203.9,126.5"/>
	<path class="st1" d="M203.9,62.8c-0.6,0.6-0.9,1.3-0.9,2.1c0,0.8,0.3,1.6,0.9,2.1c0.6,0.6,1.3,0.9,2.1,0.9s1.6-0.3,2.1-0.9
		c0.6-0.6,0.9-1.3,0.9-2.1s-0.3-1.6-0.9-2.1c-0.6-0.6-1.3-0.9-2.1-0.9C205.3,61.8,204.5,62.1,203.9,62.8"/>
	<path class="st1" d="M215.9,111c-0.4,0-0.9,0.1-1.3,0.2c-1.1,0.5-1.8,1.5-1.9,2.7c-0.1,1.7,1.3,3.1,2.9,3.1c0.4,0,0.9-0.1,1.3-0.2
		c1.1-0.5,1.8-1.5,1.9-2.7C218.9,112.5,217.6,111.2,215.9,111"/>
	<path class="st1" d="M191.3,58.1c0.4,0,0.9-0.1,1.3-0.2c1.1-0.5,1.8-1.5,1.9-2.7c0-0.8-0.3-1.6-0.8-2.2c-0.6-0.6-1.3-0.9-2.1-1
		c-0.4,0-0.9,0.1-1.3,0.2c-1.1,0.5-1.8,1.5-1.9,2.7C188.3,56.6,189.6,58.1,191.3,58.1"/>
	<path class="st1" d="M190.2,135.9c-0.3,0.1-0.6,0.3-0.9,0.6c-0.6,0.6-0.9,1.3-1,2.1c0,0.8,0.3,1.6,0.8,2.2c0.9,0.9,2.2,1.2,3.4,0.7
		c0.3-0.1,0.6-0.3,0.9-0.6c1.2-1.1,1.3-3.1,0.1-4.3C192.7,135.6,191.4,135.4,190.2,135.9"/>
	<path class="st1" d="M217.1,82.3c0.3-0.1,0.6-0.3,0.9-0.6c1.2-1.1,1.3-3.1,0.1-4.3c-0.9-0.9-2.2-1.2-3.4-0.7
		c-0.3,0.1-0.6,0.3-0.9,0.6c-1.2,1.1-1.3,3.1-0.1,4.3C214.5,82.5,215.9,82.8,217.1,82.3"/>
	<path class="st1" d="M128.8,93.8c1.7,0,3,1.4,3,3c0,1.7-1.4,3-3,3c-1.7,0-3-1.4-3-3C125.7,95.2,127.1,93.8,128.8,93.8"/>
	<path class="st1" d="M144.3,126.5c0.6,0.6,0.9,1.3,0.9,2.1c0,0.8-0.3,1.6-0.9,2.1c-0.6,0.6-1.3,0.9-2.1,0.9s-1.6-0.3-2.1-0.9
		c-0.6-0.6-0.9-1.3-0.9-2.1s0.3-1.6,0.9-2.1c0.6-0.6,1.3-0.9,2.1-0.9C143,125.8,143.7,126,144.3,126.5"/>
	<path class="st1" d="M144.3,62.8c0.6,0.6,0.9,1.3,0.9,2.1c0,0.8-0.3,1.6-0.9,2.1c-0.6,0.6-1.3,0.9-2.1,0.9s-1.6-0.3-2.1-0.9
		c-0.6-0.6-0.9-1.3-0.9-2.1s0.3-1.6,0.9-2.1c0.6-0.6,1.3-0.9,2.1-0.9C142.9,61.8,143.7,62.1,144.3,62.8"/>
	<path class="st1" d="M132.2,111c0.4,0,0.9,0.1,1.3,0.2c1.1,0.5,1.8,1.5,1.9,2.7c0.1,1.7-1.3,3.1-2.9,3.1c-0.4,0-0.9-0.1-1.3-0.2
		c-1.1-0.4-1.9-1.4-1.9-2.6C129.3,112.5,130.6,111.2,132.2,111"/>
	<path class="st1" d="M156.9,58.1c-0.4,0-0.9-0.1-1.3-0.2c-1.1-0.5-1.8-1.5-1.9-2.7c0-0.8,0.3-1.6,0.8-2.2c0.6-0.6,1.3-0.9,2.1-1
		c0.4,0,0.9,0.1,1.3,0.2c1.1,0.5,1.8,1.5,1.9,2.7C159.9,56.6,158.6,58.1,156.9,58.1"/>
	<path class="st1" d="M158,135.9c0.3,0.1,0.6,0.3,0.9,0.6c0.6,0.6,0.9,1.3,1,2.1c0,0.8-0.3,1.6-0.8,2.2c-0.9,0.9-2.2,1.2-3.4,0.7
		c-0.3-0.1-0.6-0.3-0.9-0.6c-1.2-1.1-1.3-3.1-0.1-4.3C155.5,135.6,156.8,135.4,158,135.9"/>
	<path class="st1" d="M131.1,82.3c-0.3-0.1-0.6-0.3-0.9-0.6c-1.2-1.1-1.3-3.1-0.1-4.3c0.9-0.9,2.2-1.2,3.4-0.7
		c0.3,0.1,0.6,0.3,0.9,0.6c1.2,1.1,1.3,3.1,0.1,4.3C133.6,82.5,132.3,82.8,131.1,82.3"/>
	<path class="st1" d="M61.1,214.9c3.7,0,6.8,0.7,9,1.6v6c-3.9-1.6-6.4-2-9-2c-5.1,0-6.9,4.8-6.9,10.8s1.8,10.8,6.9,10.8
		c2.6,0,5-0.4,9-2v6c-2.1,0.9-5.3,1.6-9,1.6c-9.7,0-12.8-7.5-12.8-16.4C48.3,222.4,51.4,214.9,61.1,214.9"/>
	<path class="st1" d="M86.8,220.6c-5.5,0-6.3,5.1-6.3,10.8c0,5.8,0.8,10.8,6.3,10.8s6.3-5.1,6.3-10.8
		C93,225.6,92.2,220.6,86.8,220.6 M90.1,213.3l-3.1-2l-3.8,2h-4l5.6-4h4.5l4.9,4H90.1z M86.8,247.8c-10.8,0-12.2-8.2-12.2-16.4
		s1.5-16.4,12.2-16.4c10.8,0,12.2,8.2,12.2,16.4S97.6,247.8,86.8,247.8"/>
	<polygon class="st1" points="101.5,215.6 101.5,221.2 109.4,221.2 109.4,247.1 115.2,247.1 115.2,221.2 123.1,221.2 123.1,215.6 	
		"/>
	<polygon class="st1" points="127.4,215.6 127.4,247.1 147,247.1 147,241.6 133.2,241.6 133.2,233.6 145.7,233.6 145.7,228.1 
		133.2,228.1 133.2,221.2 147,221.2 147,215.6 	"/>
	<path class="st1" d="M166.1,241.6h3.7c5.7,0,7.4-4.2,7.4-10.2s-1.7-10.2-7.4-10.2h-3.7C166.1,221.2,166.1,241.6,166.1,241.6z
		 M160.3,247.1v-31.5h9.3c10.5,0,13.5,6.8,13.5,15.8s-3,15.8-13.5,15.8h-9.3V247.1z"/>
	<path class="st1" d="M186.9,226.1c0,0,2.1-4.2,1.2-10.5h5.5c-0.2,6.5-4.4,10.5-4.4,10.5H186.9z"/>
	<path class="st1" d="M204.5,225.4l2.6,8.2h-5.2L204.5,225.4z M202.5,214.9l-11.2,32.2h6.3l2.5-8h8.7l2.6,8h6.3l-11.2-32.2H202.5z"
		/>
	<polygon class="st1" points="220.8,215.6 220.8,221.2 234.9,221.2 220.1,243.4 220.1,247.1 243.4,247.1 243.4,241.6 228,241.6 
		242.8,219.3 242.8,215.6 	"/>
	<path class="st1" d="M264.9,236.4v-20.8h5.8v21.3c0,9.4-7.7,10.9-11.6,10.9c-3.9,0-11.6-1.5-11.6-10.9v-21.3h5.8v20.8
		c0,5.3,3.8,5.8,5.8,5.8C261.1,242.1,264.9,241.8,264.9,236.4"/>
	<path class="st1" d="M282,229.1h5.2c3.7,0,4.2-1.8,4.2-4s-0.5-3.9-4.2-3.9H282V229.1z M282,247.1h-5.8v-31.5h10.5
		c8.3,0,10.9,3.7,10.9,9.5c0,4-1.1,6.9-4.6,8.4c0.6,1.3,1.4,2.7,2.2,4.1c1.5,2.9,3.7,7,5,9.5h-7l-6.1-12.4h-5L282,247.1L282,247.1z"
		/>
	<path class="st2" d="M73.2,193.8c0,8-3.8,9.7-9.9,9.7s-9.9-1.6-9.9-9.7v-23.9h-2.5v23.9c0,10.6,6.6,12,12.4,12s12.4-1.4,12.4-12
		v-23.9h-2.5V193.8z"/>
	<polygon class="st2" points="104.6,200.1 84.4,169.9 82.7,169.9 82.7,205.6 85.3,205.6 85.2,175.2 105.3,205.6 107,205.6 
		107,169.9 104.5,169.9 	"/>
	<rect x="115.3" y="169.9" class="st2" width="2.5" height="35.7"/>
	<polygon class="st2" points="137.2,201.1 126.5,169.9 123.8,169.9 136.4,205.8 138.1,205.8 150.7,169.9 148,169.9 	"/>
	<polygon class="st2" points="155.7,205.6 175.9,205.6 175.9,203.1 158.2,203.1 158.2,188.2 174.2,188.2 174.2,185.8 158.2,185.8 
		158.2,172.2 175.9,172.2 175.9,169.9 155.7,169.9 	"/>
	<path class="st2" d="M202.4,179.8c0,4.7-1.3,7.5-7.9,7.5h-9.6v-15h9.6C201.1,172.2,202.4,174.9,202.4,179.8 M204.9,179.8
		c0-5.9-1.9-9.8-11-9.8h-11.4v35.7h2.5v-16h8.9c0.5,0,0.9,0,1.4,0l8.4,16h3l-8.8-16.3C204,188.1,204.9,183.9,204.9,179.8"/>
	<path class="st2" d="M222,185.8c-7.4-0.8-9.3-1.6-9.3-6.7c0-3.1,1-7.2,9.3-7.2c3.4,0,5.5,0.4,8.3,1.4l0.7,0.3v-2.5l-0.3-0.1
		c-2.3-0.9-5.2-1.4-8.7-1.4c-9.7,0-11.8,5.1-11.8,9.5c0,7,3.4,8.2,11.2,9.1c7.9,0.9,9.1,1.9,9.1,7.3c0,5.4-3.4,7.9-10.5,7.9
		c-4.2,0-7-0.8-9.1-1.6l-0.7-0.2v2.5l0.3,0.1c2.3,0.9,6.4,1.6,9.4,1.6c4.9,0,13-1.3,13-10.3C233,187.4,229,186.6,222,185.8"/>
	<rect x="240.3" y="169.9" class="st2" width="2.5" height="35.7"/>
	<polygon class="st2" points="249.2,172.1 259.3,172.1 259.3,205.6 261.8,205.6 261.8,172.1 271.9,172.1 271.9,169.9 249.2,169.9 	
		"/>
	<polygon class="st2" points="294.8,162.1 290.7,162.1 284.9,167.4 287.2,167.4 	"/>
	<polygon class="st2" points="297.5,172.2 297.5,169.9 277.3,169.9 277.3,205.6 297.5,205.6 297.5,203.1 279.8,203.1 279.8,188.2 
		295.8,188.2 295.8,185.8 279.8,185.8 279.8,172.2 	"/>
</g>
</svg>
